<svg xmlns="http://www.w3.org/2000/svg" viewBox="0 0 400 200">
  <defs>
    <linearGradient id="bgGradient" x1="0%" y1="0%" x2="100%" y2="100%">
      <stop offset="0%" style="stop-color:#FAF7F2;stop-opacity:1" />
      <stop offset="100%" style="stop-color:#F3EDE4;stop-opacity:1" />
    </linearGradient>
    <linearGradient id="nodeGradient" x1="0%" y1="0%" x2="100%" y2="100%">
      <stop offset="0%" style="stop-color:#C45D35;stop-opacity:1" />
      <stop offset="100%" style="stop-color:#A04A2B;stop-opacity:1" />
    </linearGradient>
  </defs>

  <!-- Background -->
  <rect width="400" height="200" fill="url(#bgGradient)" rx="12"/>

  <!-- Connections -->
  <g stroke="#E7E0D6" stroke-width="2" fill="none">
    <!-- Input to Hidden 1 -->
    <line x1="80" y1="50" x2="180" y2="70"/>
    <line x1="80" y1="100" x2="180" y2="70"/>
    <line x1="80" y1="150" x2="180" y2="70"/>
    <line x1="80" y1="50" x2="180" y2="130"/>
    <line x1="80" y1="100" x2="180" y2="130"/>
    <line x1="80" y1="150" x2="180" y2="130"/>

    <!-- Hidden 1 to Hidden 2 -->
    <line x1="180" y1="70" x2="260" y2="70"/>
    <line x1="180" y1="70" x2="260" y2="130"/>
    <line x1="180" y1="130" x2="260" y2="70"/>
    <line x1="180" y1="130" x2="260" y2="130"/>

    <!-- Hidden 2 to Output -->
    <line x1="260" y1="70" x2="340" y2="100"/>
    <line x1="260" y1="130" x2="340" y2="100"/>
  </g>

  <!-- Input Layer Nodes -->
  <circle cx="80" cy="50" r="16" fill="url(#nodeGradient)"/>
  <circle cx="80" cy="100" r="16" fill="url(#nodeGradient)"/>
  <circle cx="80" cy="150" r="16" fill="url(#nodeGradient)"/>

  <!-- Hidden Layer 1 Nodes -->
  <circle cx="180" cy="70" r="16" fill="#1A535C"/>
  <circle cx="180" cy="130" r="16" fill="#1A535C"/>

  <!-- Hidden Layer 2 Nodes -->
  <circle cx="260" cy="70" r="16" fill="#1A535C"/>
  <circle cx="260" cy="130" r="16" fill="#1A535C"/>

  <!-- Output Layer Node -->
  <circle cx="340" cy="100" r="20" fill="url(#nodeGradient)" stroke="#A04A2B" stroke-width="3"/>

  <!-- Labels -->
  <text x="80" y="185" text-anchor="middle" font-family="Outfit, sans-serif" font-size="11" fill="#57534E">Entrée</text>
  <text x="220" y="185" text-anchor="middle" font-family="Outfit, sans-serif" font-size="11" fill="#57534E">Couches cachées</text>
  <text x="340" y="185" text-anchor="middle" font-family="Outfit, sans-serif" font-size="11" fill="#57534E">Sortie</text>
</svg>
